<svg xmlns="http://www.w3.org/2000/svg" xmlns:xlink="http://www.w3.org/1999/xlink" width="63" height="30" viewBox="0 0 63 30">
  <defs>
    <filter id="filter" x="875" y="8670" width="63" height="30" filterUnits="userSpaceOnUse">
      <feFlood result="flood" flood-color="#e1e1e1"/>
      <feComposite result="composite" operator="in" in2="SourceGraphic"/>
      <feBlend result="blend" in2="SourceGraphic"/>
    </filter>
  </defs>
  <path id="left" class="cls-1" d="M932.144,8683.93H935.1a1.065,1.065,0,0,1,0,2.13H892.692a0.945,0.945,0,0,0,0,1.89H935.1a2.95,2.95,0,0,0,0-5.9h-2.959A0.94,0.94,0,0,0,932.144,8683.93Zm-57.137,1.28a3,3,0,0,0,.816,1.85,0.167,0.167,0,0,1,.04.04l11.821,12.03a2.847,2.847,0,0,0,4.1,0,2.985,2.985,0,0,0,0-4.17l-6.889-7.01h3.854a0.945,0.945,0,0,0,0-1.89H882.66a0.923,0.923,0,0,0-.855.59,0.944,0.944,0,0,0,.2,1.02l8.468,8.62a1.089,1.089,0,0,1,.307.76,1.062,1.062,0,0,1-.308.75,1.039,1.039,0,0,1-1.481,0l-11.836-12.05h0a1.085,1.085,0,0,1-.3-0.66v-0.02a1.067,1.067,0,0,1,.255-0.77c0.016-.02.033-0.04,0.06-0.07l11.825-12.04a1.041,1.041,0,0,1,1.482,0,1.084,1.084,0,0,1,0,1.51l-8.468,8.62a0.961,0.961,0,0,0-.2,1.03,0.928,0.928,0,0,0,.855.58H928.2a0.94,0.94,0,0,0,0-1.88H884.892l6.889-7.02a2.989,2.989,0,0,0,0-4.17,2.871,2.871,0,0,0-4.1,0l-11.817,12.03c-0.056.06-.109,0.12-0.161,0.18a2.966,2.966,0,0,0-.682,1.55,3.02,3.02,0,0,0-.018.57S875.007,8685.2,875.007,8685.21Z" transform="translate(-875 -8670)"/>
</svg>
